<svg viewBox="0 0 325.94 255.26" version="1.1" xmlns="http://www.w3.org/2000/svg" id="Calque_1">
  
  <defs>
    <style>
      .st0 {
        fill: #8d1820;
      }
    </style>
  </defs>
  <g>
    <path d="M111.37,185.27c-1.88.59-3.62.88-5.23.88-3.02,0-5.67-.62-7.97-1.86-2.3-1.24-4.06-2.94-5.31-5.1-1.24-2.16-1.86-4.59-1.86-7.29,0-3.15.67-5.88,2-8.19,1.33-2.31,3.14-4.08,5.41-5.31,2.27-1.23,4.75-1.84,7.45-1.84,1.63,0,3.16.19,4.6.58,1.44.39,2.74.9,3.88,1.54l-1.28,3.56c-.85-.48-1.93-.9-3.22-1.26-1.3-.36-2.46-.54-3.5-.54-2.24,0-4.22.45-5.95,1.36-1.72.91-3.05,2.2-3.98,3.88-.93,1.68-1.4,3.64-1.4,5.89,0,2.08.47,3.94,1.4,5.57.93,1.63,2.26,2.89,3.96,3.78,1.71.89,3.66,1.34,5.85,1.34,1.01,0,2-.1,2.96-.3.96-.2,1.76-.49,2.4-.86v-5.73h-5.77v-3.72h9.69v11.69c-.88.69-2.26,1.34-4.14,1.92Z" class="st0"></path>
    <path d="M138.1,178.22h-11.13l-3.08,7.61h-3.84l12.65-30.15h.24l12.65,30.15h-4.48l-3-7.61ZM136.78,174.86l-4.12-10.57-4.28,10.57h8.41Z" class="st0"></path>
    <path d="M179.78,155.96v29.87h-3.84v-18.74l-10.65,15.09h-.08l-10.45-14.57v18.22h-3.76v-29.87h.04l14.25,20.18,14.45-20.18h.04Z" class="st0"></path>
    <path d="M206.92,156.88v3.72h-14.93v8.81h13.33v3.72h-13.33v8.93h15.5v3.76h-19.38v-28.95h18.82Z" class="st0"></path>
    <path d="M225.9,160.69c-1.17-.35-2.28-.52-3.32-.52-1.58,0-2.82.35-3.74,1.06-.92.71-1.38,1.68-1.38,2.9s.54,2.18,1.62,2.94c1.08.76,2.62,1.52,4.62,2.26,1.49.53,2.76,1.11,3.78,1.74,1.03.63,1.88,1.5,2.56,2.6.68,1.11,1.02,2.52,1.02,4.22,0,1.55-.39,2.95-1.16,4.2-.77,1.25-1.88,2.24-3.3,2.96-1.43.72-3.1,1.08-5.02,1.08-1.79,0-3.51-.29-5.17-.86-1.66-.57-3.11-1.3-4.36-2.18l1.72-3.08c.99.75,2.18,1.38,3.56,1.9,1.39.52,2.68.78,3.88.78,1.55,0,2.9-.4,4.06-1.2,1.16-.8,1.74-1.99,1.74-3.56,0-1.33-.49-2.4-1.46-3.18-.97-.79-2.34-1.53-4.1-2.22-1.63-.61-2.98-1.21-4.06-1.8-1.08-.59-2.01-1.39-2.78-2.42-.77-1.03-1.16-2.32-1.16-3.86,0-2.27.79-4.1,2.38-5.51,1.59-1.4,3.65-2.14,6.19-2.22,3.12,0,6.02.77,8.69,2.32l-1.48,3c-1.04-.56-2.15-1.01-3.32-1.36Z" class="st0"></path>
  </g>
  <g>
    <g>
      <path d="M19.29,93.26l21.49-2.84c6.63-.88,11.91.04,15.84,2.75,3.93,2.71,6.37,7.66,7.32,14.84,1.84,13.89-4.35,21.78-18.56,23.66l-20.66,2.73-5.44-41.14ZM41.58,107.94l1.36,10.3,1.67-.22c.48-.06.86-.27,1.16-.64.29-.36.41-.8.34-1.32l-.91-6.91c-.06-.48-.28-.85-.66-1.12-.38-.27-.81-.38-1.28-.32l-1.67.22Z" class="st0"></path>
      <path d="M70.73,96.97l33.31,4.65-2.42,17.31-12.85-1.79-.33,2.38,12.85,1.79-.52,3.75-12.85-1.79-.33,2.38,13.38,1.87-2.13,15.29-33.84-4.73,5.74-41.1ZM96.97,98.87l-18.62-2.6,1.08-7.73,18.85.93-1.31,9.4Z" class="st0"></path>
      <path d="M108.9,92.22h20.66v26.07h6.13v15.43h-26.79v-41.5Z" class="st0"></path>
      <path d="M142.79,140.63v-41.5h20.66v41.5h-20.66Z" class="st0"></path>
      <path d="M194.54,124.38l1.11,12.08-20.57,1.89-3.8-41.33,21.71-2c7.14-.66,12.49.03,16.05,2.05,3.56,2.02,5.61,5.91,6.14,11.65.4,4.35-.72,7.69-3.36,10.02,2.78,4.05,5.09,9.24,6.92,15.59l-19.68,1.81c-.69-4-1.57-7.49-2.65-10.49l-.55-1.4-1.32.12ZM194.1,119.54l1.73-.16c.48-.04.86-.24,1.15-.59.29-.35.41-.78.36-1.3l-.33-3.59c-.05-.52-.25-.91-.59-1.18-.35-.27-.76-.38-1.24-.34l-1.73.16.64,7Z" class="st0"></path>
      <path d="M226.56,87.45l33.36,4.23-2.2,17.34-12.87-1.63-.3,2.38,12.87,1.63-.48,3.75-12.87-1.63-.3,2.38,13.41,1.7-1.94,15.31-33.9-4.29,5.21-41.17Z" class="st0"></path>
    </g>
    <ellipse ry="6.96" rx="10.33" cy="81.89" cx="153.12" class="st0"></ellipse>
    <path d="M279.72,91.56c3.68-.53,7.03-.8,10.06-.8,3.02,0,5.12.12,6.3.38l1.7.4,2.51,17.48c-3.41-1.18-8.25-1.31-14.55-.41l.24,1.68c5.86-.27,9.97.16,12.32,1.3,2.35,1.14,3.8,3.62,4.35,7.44.55,3.82-.44,7.08-2.95,9.77-2.52,2.69-7.32,4.55-14.4,5.56-3.78.54-7.16.81-10.16.82-3,0-5.06-.13-6.19-.4l-1.7-.4-2.18-15.17c1.4.47,3.5.77,6.3.92,2.8.15,5.65,0,8.54-.4l-.24-1.68c-5.06.25-9-.35-11.82-1.8-2.83-1.45-4.53-4.21-5.12-8.29-.59-4.08.5-7.6,3.27-10.57,2.76-2.97,7.34-4.91,13.72-5.82Z" class="st0"></path>
  </g>
</svg>